# xmcd
#
# Track frame offsets:
#	150
#	12190
#	26612
#	40405
#	56497
#	76620
#	90495
#	104980
#	120350
#	134665
#
# Disc length: 2030 seconds
#
# Revision: 0
# Processed by: cddbd v1.5.1PL2 Copyright (c) Steve Scherf et al.
# Submitted via: dBpowerAMP V4.0
#
DISCID=7a07ec0a
DTITLE=Mindy McCready - All American Country
DYEAR=2004
DGENRE=Country
TTITLE0=A Girl's Gotta Do (What A Girl's Gotta Do)
TTITLE1=Guys Do It All The Time
TTITLE2=The Other Side Of This Kiss
TTITLE3=If I Don't Stay The Night
TTITLE4=Long, Long Time
TTITLE5=It Ain't A Party
TTITLE6=What If I Do
TTITLE7=One In A Million
TTITLE8=Tell Me Something I Don't Know
TTITLE9=Only A Whisper
EXTD=
EXTT0=
EXTT1=
EXTT2=
EXTT3=
EXTT4=
EXTT5=
EXTT6=
EXTT7=
EXTT8=
EXTT9=
PLAYORDER=
